<svg width="39" height="39" viewBox="0 0 39 39" fill="none" xmlns="http://www.w3.org/2000/svg">
<path d="M0.621155 19.0648C0.621155 8.79235 8.94866 0.464844 19.2212 0.464844C29.4937 0.464844 37.8212 8.79235 37.8212 19.0648C37.8212 29.3373 29.4937 37.6648 19.2212 37.6648C8.94866 37.6648 0.621155 29.3373 0.621155 19.0648Z" fill="white" fill-opacity="0.3"/>
<path d="M21.6711 26.5848C21.6259 26.5848 21.5733 26.5773 21.5282 26.5622C20.0165 26.1335 18.4294 26.1335 16.9177 26.5622C16.6394 26.6374 16.3461 26.4795 16.2709 26.2012C16.1882 25.9229 16.3537 25.6296 16.632 25.5544C18.3317 25.073 20.1217 25.073 21.8214 25.5544C22.0998 25.6371 22.2652 25.9229 22.1825 26.2012C22.1073 26.4344 21.8967 26.5848 21.6711 26.5848Z" fill="white"/>
<path d="M24.6434 14.8227C23.8612 13.243 22.3492 12.0772 20.5966 11.6936C18.7612 11.2873 16.8807 11.7236 15.444 12.882C13.9998 14.0329 13.1799 15.7554 13.1799 17.5983C13.1799 19.5466 14.3458 21.585 16.1059 22.766V23.3904C16.0984 23.6009 16.0909 23.9244 16.3466 24.1876C16.6099 24.4585 17.0011 24.4886 17.3094 24.4886H21.1683C21.5744 24.4886 21.8829 24.3757 22.0935 24.1651C22.3793 23.8717 22.3718 23.4956 22.3643 23.2925V22.766C24.6962 21.1939 26.163 17.8767 24.6434 14.8227ZM20.5139 18.7793L19.709 20.1784C19.6037 20.3589 19.4156 20.4642 19.22 20.4642C19.1223 20.4642 19.0245 20.4417 18.9418 20.3891C18.671 20.231 18.5807 19.885 18.7311 19.6218L19.3705 18.5085H18.7387C18.3626 18.5085 18.0542 18.3431 17.8886 18.0647C17.7232 17.7788 17.7382 17.4329 17.9263 17.1019L18.7311 15.7028C18.889 15.432 19.2351 15.3418 19.4984 15.4921C19.7692 15.6501 19.8594 15.9961 19.709 16.2594L19.0697 17.3727H19.7015C20.0776 17.3727 20.386 17.5381 20.5514 17.8165C20.717 18.1023 20.7019 18.4559 20.5139 18.7793Z" fill="white"/>
</svg>
