<svg width="44" height="44" viewBox="0 0 44 44" fill="none" xmlns="http://www.w3.org/2000/svg">
<path d="M0.000183105 21.5894C0.000183105 9.79667 9.56007 0.236816 21.3528 0.236816C33.1454 0.236816 42.7052 9.79667 42.7052 21.5894C42.7052 33.382 33.1454 42.9419 21.3528 42.9419C9.56007 42.9419 0.000183105 33.382 0.000183105 21.5894Z" fill="#0161FE"/>
<path d="M25.6703 14.2485H17.0351C14.4446 14.2485 12.7175 15.5438 12.7175 18.5661V24.6108C12.7175 27.6331 14.4446 28.9284 17.0351 28.9284H25.6703C28.2609 28.9284 29.988 27.6331 29.988 24.6108V18.5661C29.988 15.5438 28.2609 14.2485 25.6703 14.2485ZM26.0762 19.5074L23.3734 21.6662C22.8034 22.1239 22.0781 22.3484 21.3527 22.3484C20.6274 22.3484 19.8934 22.1239 19.3321 21.6662L16.6293 19.5074C16.3529 19.2829 16.3098 18.8684 16.5256 18.5921C16.7502 18.3157 17.156 18.2639 17.4323 18.4884L20.1352 20.6472C20.7914 21.174 21.9054 21.174 22.5617 20.6472L25.2645 18.4884C25.5408 18.2639 25.9553 18.3071 26.1712 18.5921C26.3957 18.8684 26.3525 19.2829 26.0762 19.5074Z" fill="white"/>
</svg>
