<svg width="44" height="44" viewBox="0 0 44 44" fill="none" xmlns="http://www.w3.org/2000/svg">
<path d="M0.000183105 21.5889C0.000183105 9.79618 9.56007 0.236328 21.3528 0.236328C33.1454 0.236328 42.7052 9.79618 42.7052 21.5889C42.7052 33.3816 33.1454 42.9414 21.3528 42.9414C9.56007 42.9414 0.000183105 33.3816 0.000183105 21.5889Z" fill="#0161FE"/>
<path fill-rule="evenodd" clip-rule="evenodd" d="M20.7161 30.3388C20.7161 30.3388 14.4453 25.0575 14.4453 19.8608C14.4453 18.0287 15.173 16.2715 16.4686 14.976C17.7641 13.6805 19.5212 12.9526 21.3534 12.9526C23.1856 12.9526 24.9427 13.6805 26.2382 14.976C27.5337 16.2715 28.2616 18.0287 28.2616 19.8608C28.2616 25.0575 21.9907 30.3388 21.9907 30.3388C21.6418 30.66 21.0676 30.6566 20.7161 30.3388ZM21.3534 22.8831C21.7503 22.8831 22.1433 22.805 22.51 22.6531C22.8767 22.5012 23.2098 22.2786 23.4905 21.9979C23.7711 21.7173 23.9937 21.3841 24.1456 21.0174C24.2975 20.6508 24.3758 20.2577 24.3758 19.8608C24.3758 19.4639 24.2975 19.0709 24.1456 18.7042C23.9937 18.3376 23.7711 18.0043 23.4905 17.7237C23.2098 17.443 22.8767 17.2204 22.51 17.0685C22.1433 16.9166 21.7503 16.8385 21.3534 16.8385C20.5518 16.8385 19.7831 17.1569 19.2163 17.7237C18.6495 18.2905 18.3311 19.0592 18.3311 19.8608C18.3311 20.6624 18.6495 21.4311 19.2163 21.9979C19.7831 22.5648 20.5518 22.8831 21.3534 22.8831Z" fill="white"/>
</svg>
