<svg width="44" height="44" viewBox="0 0 44 44" fill="none" xmlns="http://www.w3.org/2000/svg">
<path d="M0.000183105 21.5894C0.000183105 9.79667 9.56007 0.236816 21.3528 0.236816C33.1454 0.236816 42.7052 9.79667 42.7052 21.5894C42.7052 33.382 33.1454 42.9419 21.3528 42.9419C9.56007 42.9419 0.000183105 33.382 0.000183105 21.5894Z" fill="#0161FE"/>
<path d="M17.7025 13.332L18.6325 13.035C19.5029 12.7569 20.4338 13.2068 20.8068 14.0859L21.5495 15.8371C21.8733 16.5996 21.6937 17.4968 21.1056 18.0547L19.471 19.6073C19.5717 20.5364 19.8837 21.4509 20.407 22.3507C20.9047 23.221 21.5714 23.9829 22.3681 24.5915L24.3335 23.9352C25.0778 23.6874 25.8887 23.9732 26.3455 24.6442L27.4093 26.2072C27.9412 26.9878 27.8454 28.0637 27.1865 28.7252L26.4802 29.4341C25.7773 30.1396 24.7738 30.3961 23.8447 30.106C21.6525 29.4221 19.6368 27.3919 17.7975 24.0155C15.9558 20.6334 15.3059 17.7642 15.8476 15.408C16.0756 14.4166 16.782 13.6265 17.7042 13.332" fill="white"/>
</svg>
